<svg xmlns="http://www.w3.org/2000/svg" style="display: none;">

  <symbol id="p-icon__portcullis" viewBox="0 0 32 37"><path d="M32 2.462l-3.693 9.846A46.17 46.17 0 0016 10.618c-4.264 0-8.388.608-12.307 1.69L0 2.462h2.899a7.055 7.055 0 00-.437 2.461l2.461-1.23v2.46H2.561c.35 2.124 1.585 3.693 3.054 3.693 1.1 0 2.06-.886 2.621-2.222a1.225 1.225 0 01-.156-1.847 3.617 3.617 0 01-.685-1.7 3.67 3.67 0 01.873-2.868 3.669 3.669 0 011.568 2.555c.082.64-.01 1.26-.234 1.818a1.226 1.226 0 01.222 1.93c.339.409.757.722 1.227.906.06.027.123.047.184.069.062.019.12.044.184.058.164.042.332.07.504.07.012 0 .022-.005.034-.005.014 0 .028.005.043.005 1.7 0 3.077-1.653 3.077-3.692V4.91a3.703 3.703 0 00-2.77 1.245V2.462a3.702 3.702 0 002.77 1.244v-.014h.01c0-1.58-.626-2.945-1.548-3.692h4.923c-.923.747-1.548 2.113-1.548 3.692h.01v.014c1.108 0 2.091-.488 2.768-1.244v3.692a3.703 3.703 0 00-2.768-1.245v.014c0 2.04 1.377 3.692 3.076 3.692.015 0 .029-.005.044-.005.01 0 .021.005.033.005.172 0 .34-.028.504-.07.064-.014.123-.04.185-.059.061-.022.123-.04.183-.068.47-.184.888-.497 1.227-.905a1.23 1.23 0 01.222-1.931 3.616 3.616 0 01-.234-1.818 3.668 3.668 0 011.569-2.555 3.669 3.669 0 01.872 2.868 3.617 3.617 0 01-.685 1.7 1.228 1.228 0 01-.156 1.847c.56 1.336 1.52 2.222 2.62 2.222 1.47 0 2.705-1.569 3.055-3.692h-2.362V3.692l2.461 1.231c0-.901-.166-1.735-.437-2.461H32zM2.461 13.535v23.384C1.03 36.92 0 35.852 0 34.458c0-.945.48-1.73 1.23-2.145v-1.865C.48 30.035 0 29.25 0 28.304c0-.945.48-1.73 1.23-2.145v-1.864C.48 23.88 0 23.095 0 22.15c0-.945.48-1.73 1.23-2.144V18.14C.48 17.727 0 16.94 0 15.996c0-1.394 1.029-2.461 2.461-2.461zM30.77 18.14v1.864c.751.414 1.231 1.2 1.231 2.145 0 .945-.48 1.73-1.23 2.145v1.864c.75.414 1.23 1.2 1.23 2.145 0 .945-.48 1.73-1.23 2.144v1.865c.75.414 1.23 1.2 1.23 2.145 0 1.394-1.029 2.461-2.462 2.461V13.535c1.433 0 2.462 1.067 2.462 2.461 0 .945-.48 1.73-1.23 2.145zm-6.153.32h-2.462V16h2.462v2.462zm0 4.924h-2.462v-2.462h2.462v2.462zm0 4.923h-2.462v-2.462h2.462v2.462zm-4.924-9.846h-2.461V16h2.461v2.462zm0 4.923h-2.461v-2.462h2.461v2.462zm0 4.923h-2.461v-2.462h2.461v2.462zm-4.923-9.846h-2.461V16h2.461v2.462zm0 4.923h-2.461v-2.462h2.461v2.462zm0 4.923h-2.461v-2.462h2.461v2.462zm-4.923-9.846H7.385V16h2.461v2.462zm0 4.923H7.385v-2.462h2.461v2.462zm0 4.923H7.385v-2.462h2.461v2.462zm-4.923-14.77v23.385l2.462-3.692v-2.462h2.461v2.462h-.615v.615l1.846 3.077 1.846-3.077v-.615h-.615v-2.462h2.461v2.462h-.615v.615L16 36.923l1.846-3.077v-.615h-.615v-2.462h2.461v2.462h-.615v.615l1.846 3.077 1.846-3.077v-.615h-.615v-2.462h2.462v2.462l2.46 3.692V13.538H4.924z"/></symbol>

  <symbol id="p-icon__twitter" viewBox="0 0 1200 1227"><path d="M714.163 519.284 1160.89 0h-105.86L667.137 450.887 357.328 0H0l468.492 681.821L0 1226.37h105.866l409.625-476.152 327.181 476.152H1200L714.137 519.284h.026ZM569.165 687.828l-47.468-67.894-377.686-540.24h162.604l304.797 435.991 47.468 67.894 396.2 566.721H892.476L569.165 687.854v-.026Z"/></symbol>

  <symbol id="p-icon__instagram" viewBox="0 0 31 30"><path d="M15.5 2.701c4.008 0 4.482.018 6.059.088 1.464.065 2.255.31 2.783.516.697.27 1.201.597 1.723 1.119.527.527.85 1.025 1.119 1.722.205.528.45 1.325.515 2.784.07 1.582.088 2.056.088 6.058 0 4.008-.017 4.483-.088 6.059-.064 1.465-.31 2.256-.515 2.783a4.639 4.639 0 0 1-1.12 1.723 4.614 4.614 0 0 1-1.722 1.119c-.527.205-1.324.451-2.783.515-1.582.07-2.057.088-6.059.088-4.008 0-4.482-.017-6.059-.087-1.464-.065-2.255-.311-2.783-.516a4.64 4.64 0 0 1-1.722-1.12 4.614 4.614 0 0 1-1.12-1.722c-.205-.527-.45-1.324-.515-2.783-.07-1.582-.088-2.057-.088-6.059 0-4.008.017-4.482.088-6.058.064-1.465.31-2.256.515-2.784a4.639 4.639 0 0 1 1.12-1.722 4.614 4.614 0 0 1 1.722-1.12c.528-.204 1.324-.45 2.783-.515 1.577-.07 2.051-.088 6.059-.088ZM15.5 0c-4.072 0-4.582.018-6.182.088-1.593.07-2.69.328-3.638.697A7.321 7.321 0 0 0 3.02 2.52a7.35 7.35 0 0 0-1.735 2.654C.916 6.129.658 7.219.588 8.812.518 10.418.5 10.928.5 15c0 4.072.018 4.582.088 6.182.07 1.593.328 2.69.697 3.638.387.99.897 1.828 1.735 2.66a7.333 7.333 0 0 0 2.654 1.729c.955.37 2.045.627 3.638.697 1.6.07 2.11.088 6.182.088 4.072 0 4.582-.017 6.182-.088 1.594-.07 2.69-.328 3.639-.697a7.334 7.334 0 0 0 2.654-1.729 7.334 7.334 0 0 0 1.728-2.654c.37-.955.627-2.045.698-3.639.07-1.6.087-2.109.087-6.181s-.017-4.582-.087-6.182c-.07-1.594-.329-2.69-.698-3.638a7.026 7.026 0 0 0-1.716-2.666A7.333 7.333 0 0 0 25.325.79c-.955-.37-2.045-.627-3.639-.697C20.082.018 19.572 0 15.5 0Z"/><path d="M15.5 7.295A7.707 7.707 0 0 0 7.795 15a7.707 7.707 0 0 0 7.705 7.705A7.707 7.707 0 0 0 23.205 15 7.707 7.707 0 0 0 15.5 7.295Zm0 12.703a4.999 4.999 0 1 1 .001-9.997 4.999 4.999 0 0 1-.001 9.997ZM25.309 6.99a1.8 1.8 0 1 1-3.599 0 1.8 1.8 0 0 1 3.599 0Z"/></symbol>

  <symbol id="p-icon__facebook" viewBox="0 0 30 30"><path d="M30 15c0-8.284-6.716-15-15-15C6.716 0 0 6.716 0 15c0 7.487 5.485 13.692 12.656 14.818V19.336H8.848V15h3.808v-3.305c0-3.76 2.24-5.836 5.666-5.836 1.64 0 3.358.293 3.358.293v3.692h-1.892c-1.863 0-2.444 1.156-2.444 2.344V15h4.16l-.665 4.336h-3.495v10.482C24.514 28.692 30 22.487 30 15Z"/></symbol>

  <symbol id="p-icon__youtube" viewBox="0 0 30 22"><path d="M29.701 5s-.293-2.068-1.195-2.977C27.363.828 26.086.823 25.5.752 21.305.447 15.006.447 15.006.447h-.012S8.695.447 4.5.752c-.586.07-1.863.076-3.006 1.271C.592 2.933.304 5 .304 5S0 7.432 0 9.857v2.274c0 2.426.299 4.857.299 4.857s.293 2.069 1.19 2.977c1.142 1.195 2.642 1.154 3.31 1.283C7.2 21.477 15 21.547 15 21.547s6.305-.012 10.5-.31c.586-.07 1.863-.077 3.006-1.272.902-.908 1.195-2.977 1.195-2.977S30 14.563 30 12.131V9.857C30 7.432 29.701 5 29.701 5Zm-17.8 9.89V6.46l8.103 4.23-8.104 4.2Z"/></symbol>

  <symbol id="p-icon__search" viewBox="0 0 16 16"><path fill-rule="evenodd" clip-rule="evenodd" d="M6.394 12.568C2.863 12.568 0 9.755 0 6.284 0 2.814 2.863 0 6.394 0c3.53 0 6.393 2.813 6.393 6.284a6.18 6.18 0 01-1.077 3.492.53.53 0 00.055.676l3.622 3.56a.5.5 0 010 .714l-.417.41a.5.5 0 01-.7 0l-3.646-3.584a.529.529 0 00-.663-.052 6.442 6.442 0 01-3.567 1.068zm4.794-6.284c0 2.603-2.147 4.713-4.795 4.713s-4.795-2.11-4.795-4.713S3.745 1.57 6.393 1.57s4.795 2.11 4.795 4.713z"/></symbol>

  <symbol id="p-icon__pds" viewBox="0 0 1144 300"><g transform="matrix(1.33333 0 0 -1.33333 -77.333 373.201)"><path d="M207.792 266.48l-1.953-1.01v-.006c2.254-4.004 2.844-9.3 1.45-14.616-2.314 1.721-3.924 4.297-4.71 7.3l-1.953-1.01-.004-.008a57.493 57.493 0 0 0-7.421-16.668l-.026-.057.548-2.093a14.256 14.256 0 0 0 6.529 1.573c.794 0 1.572-.065 2.33-.19-1.996-4.729-6.677-8.049-12.134-8.049-5.121 0-9.555 2.93-11.732 7.203a5.65 5.65 0 0 1 3.147 3.916c.55 2.501-1.038 3.672-.488 6.173a4.634 4.634 0 1 0 9.113-.334 5.924 5.924 0 0 1-1.789 10.856 5.915 5.915 0 0 1-5.43-1.57 12.453 12.453 0 0 1 1.792 4.216c.836 3.805-.165 7.604-2.427 10.556-3.291-1.73-5.793-4.76-6.63-8.565a12.466 12.466 0 0 1-.143-4.579 5.913 5.913 0 0 1-4.27 3.703 5.925 5.925 0 0 1-7.058-4.513 5.906 5.906 0 0 1 .88-4.59 4.635 4.635 0 0 0 8.414-3.52c-.55-2.5-2.483-2.898-3.033-5.399a5.639 5.639 0 0 1 .689-4.145s.12-.183.303-.484a15.242 15.242 0 0 0-9.391-3.222c-8.457 0-15.313 6.856-15.313 15.313v1.241a20.854 20.854 0 0 0 12.239-6.664l1.637 1.637v18.317l-1.665 1.664a20.853 20.853 0 0 0-12.21-6.632v.015c0 6.655 4.543 12.25 10.698 13.85l-1.69 1.693c-4.536.326-9.116.495-13.737.495-4.62 0-9.2-.169-13.738-.495l-1.688-1.693c6.155-1.6 10.698-7.194 10.698-13.85v-.015a20.858 20.858 0 0 0-12.211 6.632l-1.664-1.664v-18.317l1.636-1.637a20.857 20.857 0 0 0 12.239 6.664v-1.24c0-8.458-6.855-15.314-15.312-15.314a15.241 15.241 0 0 0-9.337 3.18c.15.326.249.526.249.526a5.639 5.639 0 0 1 .689 4.145c-.55 2.501-2.484 2.898-3.033 5.4a4.635 4.635 0 1 0 8.413 3.519 5.906 5.906 0 0 1 .88 4.59 5.925 5.925 0 0 1-7.058 4.513 5.913 5.913 0 0 1-4.27-3.703 12.466 12.466 0 0 1-.142 4.58c-.837 3.804-3.34 6.833-6.631 8.564-2.262-2.952-3.262-6.75-2.426-10.556.34-1.546.959-2.962 1.79-4.217a5.912 5.912 0 0 1-5.428 1.571 5.924 5.924 0 0 1-1.79-10.856 4.632 4.632 0 0 0 9.114.334c.55-2.5-1.038-3.672-.49-6.173a5.652 5.652 0 0 1 3.153-3.918l-.005.002c-2.177-4.274-6.611-7.203-11.733-7.203-5.456 0-10.137 3.32-12.134 8.05.759.123 1.537.19 2.33.19 2.353 0 4.572-.569 6.53-1.575l.547 2.093-.027.061a57.495 57.495 0 0 0-7.418 16.661l-.005.012-1.953 1.01c-.786-3.004-2.396-5.579-4.71-7.3-1.395 5.315-.804 10.612 1.45 14.616v.005l-1.953 1.01c-3.412-1.169-8.021-3.039-11.362-4.527l19.63-44.086c17.466 7.788 36.812 12.12 57.17 12.12 20.359 0 39.704-4.332 57.17-12.12l19.63 44.087c-3.341 1.487-7.95 3.357-11.362 4.526" /><path d="M219.636 183.825c0-2.373-1.106-4.204-2.924-5.106-.263 1.308-1.355 2.244-2.8 2.244-1.453 0-2.54-.936-2.8-2.244-1.819.902-2.925 2.733-2.925 5.106 0 2.373 1.106 4.204 2.924 5.106.261-1.308 1.348-2.244 2.801-2.244 1.445 0 2.537.937 2.8 2.244 1.818-.9 2.924-2.733 2.924-5.106m-143.109 0c0-2.373-1.106-4.204-2.924-5.106-.263 1.308-1.354 2.244-2.8 2.244-1.453 0-2.54-.936-2.8-2.244-1.819.902-2.925 2.733-2.925 5.106 0 2.373 1.106 4.204 2.924 5.106.261-1.308 1.348-2.244 2.801-2.244 1.446 0 2.537.937 2.8 2.244 1.818-.9 2.924-2.733 2.924-5.106m143.11-28.622c0-2.373-1.107-4.204-2.925-5.106-.263 1.308-1.355 2.244-2.8 2.244-1.453 0-2.54-.936-2.8-2.244-1.819.903-2.925 2.734-2.925 5.106 0 2.373 1.106 4.204 2.924 5.106.261-1.307 1.348-2.243 2.801-2.243 1.445 0 2.537.936 2.8 2.243 1.818-.9 2.924-2.733 2.924-5.106m0-28.622c0-2.372-1.106-4.204-2.924-5.106-.263 1.308-1.355 2.245-2.8 2.245-1.453 0-2.54-.937-2.8-2.244-1.819.902-2.925 2.733-2.925 5.105 0 2.373 1.106 4.204 2.924 5.106.261-1.307 1.348-2.243 2.801-2.243 1.445 0 2.537.936 2.8 2.244 1.818-.902 2.924-2.734 2.924-5.107m0-28.62c0-3.425-2.3-5.726-5.724-5.726-3.424 0-5.725 2.301-5.725 5.725 0 2.372 1.106 4.203 2.924 5.106.261-1.308 1.348-2.244 2.801-2.244 1.445 0 2.537.936 2.8 2.244 1.818-.902 2.924-2.733 2.924-5.106m-11.449 114.487c0 3.424 2.301 5.724 5.725 5.724 3.424 0 5.724-2.3 5.724-5.724 0-2.373-1.106-4.205-2.924-5.106-.263 1.307-1.355 2.244-2.8 2.244-1.453 0-2.54-.936-2.8-2.244-1.819.902-2.925 2.734-2.925 5.106m-20.035-22.897h-14.31v17.173h14.31zm0-25.76h-14.31v17.172h14.31zm0-25.76h-14.31v17.173h14.31zm-25.759 51.52h-14.31v17.173h14.31zm0-25.76h-14.31v17.172h14.31zm0-25.76h-14.31v17.173h14.31zm-25.76 51.52h-14.31v17.173h14.31zm0-25.76h-14.31v17.172h14.31zm0-25.76h-14.31v17.173h14.31zm-25.759 51.52h-14.31v17.173h14.31zm0-25.76h-14.31v17.172h14.31zm0-25.76h-14.31v17.173h14.31zm-37.27 69.311c-.264 1.308-1.355 2.244-2.8 2.244-1.454 0-2.54-.936-2.802-2.244-1.818.902-2.924 2.734-2.924 5.106 0 3.424 2.301 5.724 5.725 5.724 3.424 0 5.724-2.3 5.724-5.724 0-2.373-1.106-4.205-2.924-5.106m2.924-52.138c0-2.373-1.106-4.204-2.924-5.106-.263 1.308-1.354 2.244-2.8 2.244-1.453 0-2.54-.936-2.8-2.244-1.819.902-2.925 2.734-2.925 5.106 0 2.373 1.106 4.204 2.924 5.106.261-1.307 1.348-2.243 2.801-2.243 1.446 0 2.537.936 2.8 2.243 1.818-.9 2.924-2.733 2.924-5.106m0-28.622c0-2.372-1.106-4.204-2.924-5.106-.263 1.308-1.354 2.245-2.8 2.245-1.453 0-2.54-.937-2.8-2.244-1.819.902-2.925 2.733-2.925 5.105 0 2.373 1.106 4.204 2.924 5.106.261-1.307 1.348-2.243 2.801-2.243 1.446 0 2.537.936 2.8 2.244 1.818-.902 2.924-2.734 2.924-5.107m0-28.62c0-3.425-2.3-5.726-5.724-5.726-3.424 0-5.725 2.301-5.725 5.725 0 2.372 1.106 4.203 2.924 5.106.261-1.308 1.348-2.244 2.801-2.244 1.446 0 2.537.936 2.8 2.244 1.818-.902 2.924-2.734 2.924-5.106m148.833 85.865c0 5.511-3.459 9.922-8.586 11.123v6.376c5.127 1.201 8.586 5.612 8.586 11.123 0 6.484-4.788 11.45-11.448 11.45-5.666 0-9.943-3.56-11.123-8.587H81.923c-1.185 5.027-5.48 8.586-11.12 8.586-6.692 0-11.449-4.965-11.449-11.449 0-5.515 3.442-9.927 8.586-11.125v-6.372c-5.144-1.198-8.586-5.61-8.586-11.125 0-5.514 3.442-9.927 8.586-11.125v-6.372c-5.144-1.197-8.586-5.61-8.586-11.125 0-5.514 3.442-9.927 8.586-11.125v-6.372c-5.144-1.197-8.586-5.61-8.586-11.125 0-5.514 3.442-9.927 8.586-11.124v-6.373c-5.144-1.197-8.586-5.61-8.586-11.124 0-6.485 4.757-11.449 11.45-11.449 6.66 0 11.447 4.964 11.447 11.45 0 5.51-3.459 9.921-8.586 11.121v6.377c5.127 1.2 8.586 5.612 8.586 11.122 0 5.512-3.459 9.923-8.586 11.123v6.376c5.127 1.202 8.586 5.612 8.586 11.123 0 5.511-3.459 9.922-8.586 11.123v6.376c5.127 1.201 8.586 5.612 8.586 11.123 0 5.511-3.459 9.922-8.586 11.123v6.376c4.202.984 7.283 4.125 8.258 8.26h6.053V86.511h1.314a81.326 81.326 0 0 0 12.997 24.278v1.482h-5.724v17.172h14.311v-17.172h-2.863v-1.57c3.711-7.402 6.46-15.54 8.025-24.19h1.123c1.567 8.65 4.314 16.788 8.025 24.19v1.57h-2.862v17.172h14.311v-17.172h-2.862v-1.57c3.711-7.402 6.458-15.54 8.025-24.19h1.123c1.567 8.65 4.314 16.788 8.025 24.19v1.57h-2.862v17.172h14.311v-17.172h-2.862v-1.57c3.711-7.402 6.458-15.54 8.025-24.19h1.122c1.567 8.65 4.315 16.788 8.026 24.19v1.57h-2.862v17.172h14.31v-17.172h-5.724v-1.482a81.348 81.348 0 0 0 12.997-24.278h1.314v123.073h6.05c.971-4.138 4.043-7.28 8.26-8.262v-6.372c-5.144-1.198-8.586-5.61-8.586-11.125 0-5.514 3.442-9.927 8.586-11.125v-6.372c-5.144-1.197-8.586-5.61-8.586-11.125 0-5.514 3.442-9.927 8.586-11.125v-6.372c-5.144-1.197-8.586-5.61-8.586-11.125 0-5.514 3.442-9.927 8.586-11.124v-6.373c-5.144-1.197-8.586-5.61-8.586-11.124 0-6.485 4.757-11.449 11.45-11.449 6.66 0 11.447 4.964 11.447 11.45 0 5.51-3.459 9.921-8.586 11.121v6.377c5.127 1.2 8.586 5.612 8.586 11.122 0 5.512-3.459 9.923-8.586 11.123v6.376c5.127 1.202 8.586 5.612 8.586 11.123 0 5.511-3.459 9.922-8.586 11.123v6.376c5.127 1.201 8.586 5.612 8.586 11.123M323.888 261.958v-48.612c0-19.074-13.782-25.349-28.672-25.349-14.768 0-28.552 6.275-28.552 25.35v48.611h13.167v-45.04c0-12.184 4.923-18.094 15.385-18.094 10.582 0 15.505 5.91 15.505 17.97v45.164zM373.289 189.472l-21.661 31.136h-5.17v-31.136h-13.166v72.486h13.167v-30.027h5.418l20.18 30.027h15.262l-24.492-35.196 26.459-37.29zM425.2 225.77h9.843c9.473 0 12.673 4.798 12.673 12.55 0 8.366-4.307 12.672-12.798 12.672H425.2zm-13.165-36.295v72.467h23.254c18.088 0 25.837-8.366 25.837-23.008 0-14.765-8.613-23.992-24.607-23.992H425.2v-25.467zM499.157 216.65c-.5.014-.99 0-1.473 0-13.689 0-18.336-5.626-18.336-11.795 0-4.186 2.83-7.383 8.12-7.383 6.632 0 11.69 5.262 11.69 11.538zm12.798-12.535c0-4.061 1.844-5.167 4.183-5.167 1.353 0 2.46.246 3.322.615v-9.72c-1.847-.862-4.185-1.354-7.136-1.354-6.768 0-10.95 2.83-12.306 9.106-2.828-7.136-9.227-9.598-16.733-9.598-9.965 0-16.855 5.784-16.855 15.503 0 12.26 10.382 21.026 29.261 21.026h3.466v3.952c0 6.397-3.568 9.104-9.104 9.104s-9.02-2.492-9.87-8.753l-11.909 1.986c.863 12.057 11.32 16.855 22.64 16.855 12.18 0 21.041-5.044 21.041-17.962zM603.652 189.473h-12.918v56.843h12.918zM734.373 247.67c9.473 0 16.61-5.167 16.61-17.347v-40.85h-12.919v36.298c0 6.765-2.584 10.948-8.737 10.948-6.028 0-11.812-4.183-11.812-15.01v-32.236H704.72v36.298c0 6.765-2.582 10.948-8.858 10.948-6.03 0-11.689-4.183-11.689-15.134v-32.112h-12.92v56.844h10.458l1.601-10.95c2.951 8.735 9.72 12.303 17.593 12.303 7.875 0 13.905-3.322 15.38-12.549 2.954 8.981 10.091 12.55 18.088 12.55M795.841 223.802c.123.738.123 1.476.123 2.213 0 6.522-4.183 11.814-11.197 11.814-7.505 0-12.303-5.293-13.164-14.028zm1.107-16.98l11.196-3.322c-2.584-11.565-12.303-15.505-23.254-15.505-15.503 0-26.085 10.582-26.085 29.284 0 19.194 10.213 30.391 26.577 30.391 15.134 0 23.008-10.21 23.008-24.607 0-2.953-.49-5.784-.983-7.628h-36.173c.49-10.336 5.29-17.35 14.148-17.35 5.658 0 9.72 2.216 11.566 8.737M828.788 235.367c3.076 8.489 9.598 12.303 18.208 12.303 9.107 0 17.104-5.166 17.104-17.716v-40.482h-12.918v36.175c0 6.765-2.708 11.072-9.23 11.072-6.276 0-12.303-3.443-12.303-15.132v-32.115h-12.918v56.845h10.456zM910.373 191.442c-4.06-2.339-9.229-3.445-15.01-3.445-10.583 0-17.105 5.415-17.105 16.732v31.498h-8.243v10.09h8.243v15.595h13.044v-15.595h16.855v-10.09H891.18v-28.79c0-6.028 2.585-8.489 7.26-8.489 3.691 0 6.396 1.106 9.595 3.322zM537.747 230.815l-1.601 15.503h-10.95v-56.845h12.92v27.806c0 11.32 7.75 16.613 15.257 16.613.612 0 1.196-.03 1.767-.072v13.605c-10.182-1.14-15.364-7.854-17.393-16.61M579.927 199.685c-2.954 0-5.044 1.353-5.044 4.92v63.827h-12.92v-66.9c0-9.23 6.398-13.044 13.904-13.044 2.46 0 5.013.438 7.751 1.356V200.2c-1.004-.323-2.25-.515-3.69-.515M644.525 216.65c-.502.014-.99 0-1.473 0-13.692 0-18.336-5.626-18.336-11.795 0-4.186 2.831-7.383 8.12-7.383 6.632 0 11.69 5.262 11.69 11.538zm12.795-12.535c0-4.061 1.847-5.167 4.184-5.167 1.354 0 2.461.246 3.322.615v-9.72c-1.844-.862-4.183-1.354-7.134-1.354-6.768 0-10.95 2.83-12.306 9.106-2.83-7.136-9.227-9.598-16.733-9.598-9.967 0-16.855 5.784-16.855 15.503 0 12.26 10.382 21.026 29.26 21.026h3.467v3.952c0 6.397-3.568 9.104-9.104 9.104-5.538 0-9.02-2.492-9.872-8.753l-11.907 1.986c.861 12.057 11.32 16.855 22.64 16.855 12.18 0 21.038-5.044 21.038-17.962zM589.134 262.342c0-4.598 3.374-8.12 8.12-8.12 4.724 0 8.121 3.522 8.121 8.12 0 4.598-3.374 8.121-8.12 8.121-4.724 0-8.12-3.523-8.12-8.121M286.716 94.46c14.59 0 25.624 8.337 25.624 28.567 0 21.21-11.524 27.708-24.52 27.708h-11.525V94.46zm-19.984-7.969v72.214h21.088c20.352 0 34.697-9.93 34.697-35.31 0-26.728-16.062-36.904-34.82-36.904zM344.098 86.491h-9.318v56.643h9.318zm-4.782 81.777a6.725 6.725 0 0 0 6.744-6.743c0-3.556-3.066-6.621-6.744-6.621-3.555 0-6.498 3.065-6.498 6.621 0 3.8 2.943 6.743 6.498 6.743M376.098 111.625c8.092 0 13.486 4.046 13.486 12.874 0 8.705-5.394 13.118-13.486 12.996-8.214-.123-13.118-4.66-13.118-12.996 0-7.725 4.904-12.874 13.118-12.874m-1.471-44.26c11.526 0 20.23 2.329 20.23 10.299 0 4.659-2.452 8.46-10.544 8.46h-11.647c-9.195 0-14.1-3.066-14.1-9.81 0-6.62 6.989-8.95 16.06-8.95m17.902 72.215c2.82 1.226 3.8 4.536 4.414 8.582l8.336-2.942c-.858-5.395-4.413-9.073-9.196-10.054 1.84-2.942 2.699-6.621 2.699-10.79 0-13.24-10.3-19.616-22.437-19.616-2.943 0-5.885.368-7.478.98-3.067-1.593-4.292-3.554-4.292-6.252 0-3.555 2.329-5.15 6.62-5.15h13.119c12.75 0 19.494-5.15 19.494-15.447 0-14.468-15.57-18.268-29.916-18.268-12.137 0-24.275 3.188-24.275 15.08 0 7.479 5.517 12.75 14.467 13.486-4.904.614-7.48 4.046-7.48 8.46 0 4.537 2.208 7.97 8.093 9.44-6.743 3.066-10.79 9.074-10.79 17.288 0 12.506 8.952 20.107 22.192 20.107 6.744 0 12.384-1.594 16.43-4.904M423.18 86.491h-9.317v56.643h9.317zm-4.781 81.777a6.725 6.725 0 0 0 6.744-6.743c0-3.556-3.067-6.621-6.744-6.621-3.555 0-6.499 3.065-6.499 6.621 0 3.8 2.944 6.743 6.499 6.743M467.442 88.207c-3.311-2.084-7.846-3.188-12.506-3.188-9.93 0-15.57 5.395-15.57 15.204v35.432h-8.215v7.48h8.215v12.014l9.44 1.226v-13.24h16.797v-7.48h-16.92V101.94c0-6.253 2.82-8.95 7.603-8.95 3.677 0 6.13.858 9.317 2.942zM507.413 112.36c-16.429.369-23.907-3.187-23.907-11.034 0-5.15 3.31-9.072 9.93-9.072 6.498 0 13.977 4.045 13.977 11.034zm9.317-13.731c0-4.414 2.085-5.272 4.292-5.272 1.35 0 2.206.123 3.066.49V86.37c-1.35-.368-2.944-.736-5.028-.736-6.252 0-10.298 2.82-11.034 9.195-2.942-7.111-9.808-9.808-16.797-9.808-9.93 0-17.042 5.64-17.042 15.203 0 12.506 9.563 19.862 33.226 18.759v7.6c0 7.602-4.904 10.3-11.402 10.3-6.744 0-10.91-3.188-11.402-9.441l-8.583 1.226c.86 12.015 11.525 15.816 21.088 15.816 9.931 0 19.616-3.923 19.616-17.042zM551.307 86.368c-2.82-.613-4.291-.736-6.008-.736-6.742 0-12.014 3.678-12.014 11.525v71.233h9.317V98.628c0-3.555 1.962-5.149 4.904-5.149 1.717 0 2.574.245 3.8.613zM590.543 105.74c1.471-9.441 7.355-13.364 15.57-13.364 8.46 0 14.1 3.923 14.1 11.402 0 6.866-3.31 10.299-15.94 15.081-9.439 3.555-20.228 7.601-20.228 21.455 0 14.59 11.402 19.985 22.191 19.985 12.75 0 22.436-5.272 23.54-19.126l-9.318-1.472c-.735 8.46-6.253 13.119-14.1 13.119-7.6 0-12.874-4.291-12.874-11.647 0-8.092 6.376-10.544 16.92-14.59 9.81-3.801 19.494-8.093 19.494-21.456 0-13.732-10.912-20.107-24.153-20.107-14.345 0-22.436 5.885-24.275 19.126zM675.877 120.207c.123.981.123 1.716.123 2.575 0 7.846-5.27 14.222-13.486 14.222-8.705 0-14.223-5.885-15.449-16.797zm.491-18.023l8.214-1.839c-2.084-11.525-11.402-15.326-22.19-15.326-14.713 0-24.522 10.422-24.522 29.425 0 18.882 9.931 30.038 25.257 30.038 14.222 0 21.945-9.93 21.945-23.907 0-3.31-.49-6.376-1.103-7.847H646.82c.614-11.893 6.131-20.352 16.307-20.352 6.865 0 11.28 2.82 13.241 9.808M727.251 133.816c-1.104.245-2.942.368-4.536.368-8.582 0-16.062-7.234-16.062-18.145V86.491h-9.317v56.643h7.724l1.103-15.203c2.206 10.176 9.686 16.92 21.578 16.43zM731.42 143.134h10.299l10.422-32.858c3.554-11.279 4.536-18.023 4.536-18.023h.491s.857 6.621 4.291 17.901l9.93 32.98h9.808l-18.881-56.643H751.16zM798.487 86.491h-9.317v56.643h9.317zm-4.782 81.777a6.724 6.724 0 0 0 6.744-6.743c0-3.556-3.065-6.621-6.744-6.621-3.554 0-6.497 3.065-6.497 6.621 0 3.8 2.943 6.743 6.497 6.743M856.604 100.468c-1.84-11.402-10.79-15.448-21.578-15.448-14.346 0-24.276 10.421-24.276 29.425 0 18.881 9.93 30.038 25.256 30.038 11.647 0 19.126-6.008 19.862-17.41l-8.705-1.349c-1.104 7.357-5.272 11.035-11.77 11.035-10.3 0-15.693-9.318-15.693-22.437 0-12.505 6.375-21.823 16.306-21.823 6.498 0 10.912 3.065 12.75 9.685zM901.969 120.207c.123.981.123 1.716.123 2.575 0 7.846-5.271 14.222-13.486 14.222-8.705 0-14.223-5.885-15.45-16.797zm.49-18.023l8.215-1.839C908.59 88.82 899.272 85.02 888.483 85.02c-14.712 0-24.521 10.422-24.521 29.425 0 18.882 9.93 30.038 25.257 30.038 14.222 0 21.945-9.93 21.945-23.907 0-3.31-.49-6.376-1.103-7.847h-37.15c.615-11.893 6.132-20.352 16.308-20.352 6.865 0 11.279 2.82 13.24 9.808" /></g></symbol>

  <symbol id="p-icon__uk-parliament" viewBox="0 0 159 40"><path fill-rule="evenodd" clip-rule="evenodd" d="M30.32 2.646l.403-.207a32.62 32.62 0 0 1 2.35.935L29 12.494a29.138 29.138 0 0 0-23.646 0l-4.06-9.12a37 37 0 0 1 2.368-.935l.402.207a4.09 4.09 0 0 0-.302 3.024c.5-.378.854-.917 1-1.527l.38.23c.331 1.23.859 2.397 1.562 3.457l-.113.433a2.96 2.96 0 0 0-1.828-.285 2.723 2.723 0 0 0 4.906.196 1.184 1.184 0 0 1-.65-.811c-.057-.261-.004-.452.05-.642.053-.19.106-.38.05-.637a.959.959 0 0 0-1.882.071 1.225 1.225 0 1 1 1.491-1.917 2.575 2.575 0 0 1-.373-.87 2.64 2.64 0 0 1 .503-2.184 2.646 2.646 0 0 1 1.409 2.722 1.225 1.225 0 1 1 2.16 1.119.959.959 0 0 0-1.74.728c.057.265.187.417.317.567.128.148.255.296.31.552.064.293.013.6-.141.858l-.054.106a3.166 3.166 0 0 0 5.096-2.51v-.295a4.315 4.315 0 0 0-2.533 1.379l-.337-.337V2.285l.343-.344a4.315 4.315 0 0 0 2.527 1.373A2.96 2.96 0 0 0 14.003.45l.349-.35a39.864 39.864 0 0 1 5.682 0l.35.35a2.96 2.96 0 0 0-2.215 2.87 4.314 4.314 0 0 0 2.528-1.373l.343.344v3.793l-.337.338a4.315 4.315 0 0 0-2.534-1.38v.285a3.166 3.166 0 0 0 5.114 2.468l-.065-.1a1.184 1.184 0 0 1-.142-.853c.057-.265.187-.417.317-.567.127-.148.255-.296.31-.552a.959.959 0 0 0-1.746-.698 1.225 1.225 0 1 1 2.16-1.119 2.574 2.574 0 0 1 .03-.947 2.645 2.645 0 0 1 1.373-1.775 2.64 2.64 0 0 1 .486 2.13c-.07.311-.196.606-.373.87a1.225 1.225 0 1 1 1.492 1.918.959.959 0 0 0-1.883-.07c-.056.26-.003.451.05.642.054.19.107.379.05.636-.08.356-.32.655-.65.81a2.723 2.723 0 0 0 4.936-.177 2.96 2.96 0 0 0-1.829.284l-.112-.432A11.837 11.837 0 0 0 29.22 4.35l.402-.207c.147.61.5 1.15 1 1.527a4.09 4.09 0 0 0-.301-3.024zm26.137 11.977V3.377H53.41v10.447c0 2.776-1.166 4.143-3.58 4.143-2.415 0-3.552-1.361-3.552-4.179V3.378h-3.042V14.61c0 4.41 3.16 5.871 6.6 5.871 3.438 0 6.622-1.45 6.622-5.86zm6.404-1.687l5.008 7.191h3.699l-6.09-8.617 5.658-8.133h-3.552l-4.67 6.943h-1.248V3.377h-3.042v16.75h3.053v-7.191h1.184zm-19.626 26.72V22.91h5.374c4.179 0 5.972 1.936 5.972 5.327 0 3.392-1.989 5.546-5.688 5.546h-2.616v5.871h-3.042zm5.327-8.388h-2.285v-5.83h2.255c1.965 0 2.96.995 2.96 2.93 0 1.793-.74 2.9-2.93 2.9zm17.602 5.005c0 .941.427 1.184.965 1.184.263.005.525-.043.77-.142v2.243a3.87 3.87 0 0 1-1.652.313c-1.562 0-2.527-.65-2.84-2.1-.652 1.65-2.131 2.219-3.866 2.219-2.302 0-3.894-1.338-3.894-3.58 0-2.901 2.273-4.552 7.564-4.292v-1.48c0-1.48-.823-2.1-2.101-2.1a1.96 1.96 0 0 0-2.131 2.047l-2.9-.485c.201-2.788 2.616-3.895 5.232-3.895 2.817 0 4.86 1.184 4.86 4.143l-.007 5.925zm-7.54-.168c0-1.48 1.343-2.249 4.58-2.166l-.005 1.71c0 1.45-1.45 2.16-2.7 2.16a1.675 1.675 0 0 1-1.876-1.704zm27.38-15.164a1.829 1.829 0 0 1 1.958 1.877 1.935 1.935 0 0 1-3.865 0 1.811 1.811 0 0 1 1.906-1.877zm1.51 18.718V26.525h-2.96V39.66h2.96zm12.239-3.386c0 .941.426 1.184.964 1.184a1.95 1.95 0 0 0 .77-.142v2.243a3.872 3.872 0 0 1-1.651.313c-1.563 0-2.528-.65-2.841-2.1-.652 1.65-2.131 2.219-3.865 2.219-2.303 0-3.895-1.338-3.895-3.58 0-2.901 2.273-4.552 7.564-4.292v-1.48c0-1.48-.823-2.1-2.101-2.1a1.96 1.96 0 0 0-2.13 2.047l-2.9-.485c.2-2.788 2.615-3.895 5.231-3.895 2.818 0 4.86 1.184 4.86 4.143l-.006 5.925zm-7.535-.174c0-1.48 1.331-2.243 4.575-2.16v1.705c0 1.45-1.45 2.16-2.699 2.16a1.675 1.675 0 0 1-1.876-1.705zm25.333-9.89c2.19 0 3.835 1.183 3.835 4.006v9.44h-2.959V31.27c0-1.563-.592-2.527-2.019-2.527-1.426 0-2.74.964-2.74 3.468v7.446h-2.959V31.27c0-1.563-.592-2.527-2.048-2.527s-2.687.964-2.687 3.492v7.422h-2.96V26.522h2.368l.367 2.527a3.989 3.989 0 0 1 4.066-2.84c1.817 0 3.214.769 3.551 2.9.693-2.078 2.338-2.9 4.185-2.9zm17.051 10.211l-2.587-.77a2.479 2.479 0 0 1-2.651 2.037c-2.042 0-3.155-1.64-3.267-4.007h8.345c.149-.58.224-1.177.225-1.776 0-3.32-1.829-5.688-5.327-5.688-3.77 0-6.138 2.587-6.138 7.02 0 4.32 2.445 6.765 6.026 6.765 2.533 0 4.782-.906 5.374-3.581zm-2.841-4.693a3.09 3.09 0 0 0 0-.51 2.544 2.544 0 0 0-2.586-2.728c-1.734 0-2.841 1.226-3.042 3.244l5.628-.006zm11.814-5.515c-1.989 0-3.498.882-4.208 2.84l-.314-2.526h-2.415v13.133h2.959v-7.416c0-2.705 1.338-3.498 2.841-3.498 1.504 0 2.131.994 2.131 2.557v8.357h2.96v-9.351c0-2.912-1.853-4.096-3.954-4.096zM158.218 39.2a6.957 6.957 0 0 1-3.469.793c-2.444 0-3.953-1.249-3.953-3.865v-7.274h-1.906v-2.332h1.906l.68-3.604h2.332v3.604h3.895v2.332h-3.924v6.659c0 1.39.592 1.959 1.675 1.959a3.623 3.623 0 0 0 2.219-.77l.545 2.498zm-86.3-12.679l.366 3.58c.468-2.023 1.663-3.574 4.025-3.834v3.125H75.9c-1.775 0-3.55 1.219-3.55 3.835v6.428h-2.96V26.52h2.527zm10.108 10.767a1.03 1.03 0 0 1-1.184-1.136V21.414h-2.959v15.454c0 2.13 1.48 3.013 3.214 3.013a5.598 5.598 0 0 0 1.776-.314V37.2a2.818 2.818 0 0 1-.847.088z"/><path fill-rule="evenodd" clip-rule="evenodd" d="M34.357 19.533a2.29 2.29 0 0 0-1.776-2.303v-1.314a2.367 2.367 0 0 0-.592-4.67 2.285 2.285 0 0 0-2.302 1.776H4.698a2.29 2.29 0 0 0-2.302-1.776 2.302 2.302 0 0 0-2.368 2.368 2.29 2.29 0 0 0 1.776 2.302v1.32a2.367 2.367 0 0 0 0 4.599v1.32a2.367 2.367 0 0 0 0 4.599v1.32a2.367 2.367 0 0 0 0 4.598v1.32a2.368 2.368 0 0 0 .592 4.664 2.367 2.367 0 0 0 .592-4.67v-1.314a2.367 2.367 0 0 0 0-4.598v-1.32a2.367 2.367 0 0 0 0-4.6v-1.319a2.367 2.367 0 0 0 0-4.599v-1.32a2.261 2.261 0 0 0 1.71-1.71h1.249v25.45h.272a16.822 16.822 0 0 1 2.687-5.019v-.308H7.723v-3.55h2.959v3.55h-.592v.326a18.528 18.528 0 0 1 1.657 5.001h.231a18.528 18.528 0 0 1 1.663-5.001v-.326h-.592v-3.55h2.96v3.55h-.592v.326a18.525 18.525 0 0 1 1.657 5.001h.231a18.528 18.528 0 0 1 1.663-5.001v-.326h-.592v-3.55h2.96v3.55h-.592v.326a18.525 18.525 0 0 1 1.657 5.001h.23a18.528 18.528 0 0 1 1.664-5.001v-.326h-.592v-3.55h2.96v3.55h-1.184v.308a16.82 16.82 0 0 1 2.687 5.02h.272V14.205h1.249c.19.853.857 1.52 1.71 1.71v1.32a2.367 2.367 0 0 0 0 4.599v1.32a2.367 2.367 0 0 0 0 4.599v1.32a2.367 2.367 0 0 0 0 4.598v1.32a2.367 2.367 0 1 0 1.184 0v-1.32a2.368 2.368 0 0 0 0-4.598v-1.32a2.368 2.368 0 0 0 0-4.6v-1.319a2.29 2.29 0 0 0 1.776-2.302zM3.58 37.287a1.119 1.119 0 0 1-1.184 1.184 1.184 1.184 0 0 1-.592-2.238c.062.276.31.469.592.462a.592.592 0 0 0 .592-.462c.386.206.618.617.592 1.054zm-.593-4.865c.387-.205.618-.617.592-1.053a1.119 1.119 0 0 0-.592-1.054.592.592 0 0 1-.591.462.592.592 0 0 1-.592-.468 1.225 1.225 0 0 0 0 2.113.592.592 0 0 1 .592-.461.592.592 0 0 1 .591.461zm.592-6.973c.026.437-.205.848-.592 1.054a.592.592 0 0 0-.591-.462.592.592 0 0 0-.592.462 1.225 1.225 0 0 1 0-2.113c.06.277.308.474.592.467a.592.592 0 0 0 .591-.461c.387.205.618.616.592 1.053zM2.396 14.202a.592.592 0 0 1 .592.462 1.184 1.184 0 0 0-.592-2.237 1.184 1.184 0 0 0-.592 2.237.592.592 0 0 1 .592-.461zM10.682 29h-2.96v-3.552h2.96V29zm-2.96-5.326h2.96v-3.551h-2.96v3.55zm2.96-5.326h-2.96v-3.551h2.96v3.551zM13.05 29h2.96v-3.552h-2.96V29zm2.96-5.326h-2.96v-3.551h2.96v3.55zm-2.96-5.326h2.96v-3.551h-2.96v3.551zM21.336 29h-2.96v-3.552h2.96V29zm-2.96-5.326h2.96v-3.551h-2.96v3.55zm2.96-5.326h-2.96v-3.551h2.96v3.551zM23.703 29h2.96v-3.552h-2.96V29zm2.96-5.326h-2.96v-3.551h2.96v3.55zm-2.96-5.326h2.96v-3.551h-2.96v3.551zm7.103-4.734a1.184 1.184 0 1 1 1.775 1.053.592.592 0 1 0-1.183 0 1.119 1.119 0 0 1-.592-1.053zm1.37 24.813c.564-.09.983-.57.997-1.14a1.118 1.118 0 0 0-.592-1.054.592.592 0 1 1-1.184 0 1.184 1.184 0 0 0 .78 2.194zm.997-7.058a1.12 1.12 0 0 1-.592 1.053.592.592 0 0 0-1.184 0 1.225 1.225 0 0 1 0-2.113.592.592 0 0 0 1.184 0c.388.206.62.62.592 1.06zm-.592-4.866c.386-.206.617-.617.592-1.054a1.119 1.119 0 0 0-.592-1.06.592.592 0 1 1-1.184 0 1.225 1.225 0 0 0 0 2.114.592.592 0 1 1 1.184 0zm-29.002-6.97c.026.438-.205.85-.592 1.054a.592.592 0 0 0-.591-.461.592.592 0 0 0-.592.461 1.225 1.225 0 0 1 0-2.113c.06.278.308.474.592.468a.592.592 0 0 0 .591-.462c.387.206.618.617.592 1.054zm29.002 1.054a1.12 1.12 0 0 0 .592-1.053 1.119 1.119 0 0 0-.592-1.06.592.592 0 1 1-1.184 0 1.225 1.225 0 0 0 0 2.113.592.592 0 1 1 1.184 0z" /></symbol>

  <symbol id="p-icon__circle-check" viewBox="0 0 512 512"><!--! Font Awesome Pro 6.0.0 by @fontawesome - https://fontawesome.com License - https://fontawesome.com/license (Commercial License) Copyright 2022 Fonticons, Inc. --><path d="M0 256C0 114.6 114.6 0 256 0C397.4 0 512 114.6 512 256C512 397.4 397.4 512 256 512C114.6 512 0 397.4 0 256zM371.8 211.8C382.7 200.9 382.7 183.1 371.8 172.2C360.9 161.3 343.1 161.3 332.2 172.2L224 280.4L179.8 236.2C168.9 225.3 151.1 225.3 140.2 236.2C129.3 247.1 129.3 264.9 140.2 275.8L204.2 339.8C215.1 350.7 232.9 350.7 243.8 339.8L371.8 211.8z"/></symbol>
</svg>
